<?xml version="1.0" standalone="no"?>
<!DOCTYPE svg PUBLIC "-//W3C//DTD SVG 20010904//EN"
 "http://www.w3.org/TR/2001/REC-SVG-20010904/DTD/svg10.dtd">
<svg version="1.0" xmlns="http://www.w3.org/2000/svg"
 width="785.000000pt" height="1280.000000pt" viewBox="0 0 785.000000 1280.000000"
 preserveAspectRatio="xMidYMid meet">
<g transform="translate(0.000000,1280.000000) scale(0.100000,-0.100000)"
fill="#000000" stroke="none">
<path d="M409 12774 c-27 -19 -46 -46 -73 -104 l-36 -78 -40 5 c-53 7 -93 -11
-139 -64 -65 -73 -70 -122 -30 -260 12 -41 12 -43 -15 -64 -32 -25 -76 -91
-76 -114 0 -44 55 -117 164 -220 64 -59 116 -115 116 -124 0 -35 31 -118 59
-162 17 -24 75 -93 131 -153 135 -145 142 -159 150 -322 l6 -130 51 -110 51
-109 7 -185 c22 -668 133 -1275 339 -1850 118 -334 207 -527 463 -1012 264
-501 367 -678 451 -770 l36 -40 -13 -71 c-76 -425 -86 -526 -86 -887 0 -263 4
-326 23 -455 39 -265 95 -460 194 -680 60 -134 183 -365 242 -454 l44 -66 -15
-105 c-12 -84 -13 -156 -7 -360 16 -480 13 -530 -34 -725 -200 -822 -331
-1746 -332 -2335 0 -80 -4 -150 -8 -156 -4 -6 -30 -19 -59 -28 -111 -37 -233
-137 -281 -231 -31 -62 -35 -152 -8 -204 27 -52 91 -116 136 -136 40 -18 42
-18 103 4 53 18 68 20 95 10 21 -7 56 -9 95 -4 34 3 78 6 97 5 188 -5 194 -5
244 20 82 40 180 141 224 229 l37 75 -3 223 c-2 165 2 248 13 321 17 104 92
442 100 451 3 2 18 -7 33 -22 38 -36 112 -71 214 -101 106 -30 110 -32 103
-57 -5 -15 0 -22 26 -31 18 -6 82 -35 141 -65 88 -43 108 -56 104 -71 -4 -12
5 -23 32 -39 20 -11 73 -51 117 -88 44 -37 91 -75 105 -85 14 -10 21 -22 17
-26 -4 -5 -69 -11 -144 -15 l-137 -7 -93 -47 c-145 -73 -217 -168 -217 -285
-1 -65 21 -108 76 -153 47 -38 132 -46 231 -23 48 11 117 16 232 16 l163 0 12
-36 c14 -43 62 -99 101 -120 19 -9 60 -14 126 -14 73 0 104 -4 121 -16 56 -39
238 -54 407 -33 44 6 539 14 1100 18 696 6 1044 12 1095 20 245 38 326 53 355
65 84 35 175 176 276 427 39 96 78 180 87 186 9 7 32 13 52 13 47 0 63 14 85
75 10 28 53 127 96 221 44 94 84 195 91 225 27 118 10 274 -58 552 -38 154
-41 204 -18 268 9 24 16 76 17 114 0 77 -42 236 -154 581 -67 206 -75 220
-347 582 -376 501 -528 744 -573 921 -21 84 -33 103 -209 351 -138 194 -266
345 -445 525 -200 202 -495 473 -547 503 -60 35 -167 138 -286 277 -52 61
-131 146 -176 190 -65 64 -85 92 -103 140 -36 95 -57 123 -102 135 -53 14 -97
52 -127 111 -52 104 -67 244 -38 354 22 85 112 299 254 600 261 555 343 759
371 930 16 97 14 362 -5 595 -30 369 -30 333 3 460 35 138 55 302 46 385 -8
83 -33 153 -57 166 -37 20 -110 5 -175 -34 -77 -47 -214 -167 -278 -245 -27
-34 -55 -61 -61 -61 -6 -1 -38 26 -72 58 -52 49 -62 65 -62 93 0 18 -12 83
-26 143 -42 182 -62 295 -69 392 -4 51 -13 100 -20 109 -30 42 -78 -24 -95
-130 -6 -39 -20 -120 -32 -181 -11 -60 -23 -154 -27 -208 -4 -53 -11 -100 -15
-104 -3 -4 -109 1 -235 11 -236 19 -325 17 -431 -11 -67 -17 -116 -45 -242
-139 -134 -100 -165 -109 -359 -105 -226 4 -250 -10 -269 -164 -10 -79 -20
-106 -51 -140 -59 -65 -79 -197 -45 -287 16 -40 17 -55 7 -92 -6 -25 -11 -63
-11 -85 0 -23 -2 -41 -5 -41 -3 0 -33 14 -67 31 -33 17 -138 63 -232 103 -202
85 -294 134 -347 187 -89 89 -216 421 -304 794 -158 670 -185 760 -330 1070
-121 260 -162 371 -177 480 -12 89 -31 131 -112 247 -69 97 -76 131 -76 367 0
180 -1 189 -25 238 -40 79 -108 123 -195 126 -41 2 -45 4 -54 35 -12 44 -79
118 -143 159 -29 18 -59 46 -68 62 -18 36 -93 101 -114 100 -9 0 -32 -11 -52
-25z"/>
</g>
</svg>
